# xmcd
#
# Track frame offsets: 
#        150
#        22235
#        39760
#        59677
#        78110
#        96850
#        114312
#        132782
#        150225
#        171760
#
# Disc length: 2576 seconds
#
# Revision: 7
# Processed by: cddbd v1.5.2PL0 Copyright (c) Steve Scherf et al.
# Submitted via: ExactAudioCopy v0.99pb5
#
DISCID=700a0e0a
DTITLE=Jeff Lorber - Philly Style
DYEAR=2003
DGENRE=Fusion
TTITLE0=Under Wraps
TTITLE1=Gigabyte
TTITLE2=Regardless Of
TTITLE3=Philly Style
TTITLE4=Soul Food
TTITLE5=Laissez Faire
TTITLE6=Step on It
TTITLE7=Uncle Darrow's
TTITLE8=When She Smiles
TTITLE9=Serpentine Lane
EXTD=
EXTT0=
EXTT1=
EXTT2=
EXTT3=
EXTT4=
EXTT5=
EXTT6=
EXTT7=
EXTT8=
EXTT9=
PLAYORDER=
